<?xml version="1.0" encoding="UTF-8" standalone="no"?>
<!-- Created with Inkscape (http://www.inkscape.org/) -->

<svg
   version="1.1"
   id="svg1"
   width="140.23334"
   height="146.12801"
   viewBox="0 0 140.23334 146.12801"
   xmlns="http://www.w3.org/2000/svg"
   xmlns:svg="http://www.w3.org/2000/svg">
  <defs
     id="defs1">
    <clipPath
       clipPathUnits="userSpaceOnUse"
       id="clipPath2">
      <path
         d="M 0,109.596 H 105.175 V 0 H 0 Z"
         transform="translate(-36.357901,-71.938502)"
         id="path2" />
    </clipPath>
    <clipPath
       clipPathUnits="userSpaceOnUse"
       id="clipPath4">
      <path
         d="M 0,109.596 H 105.175 V 0 H 0 Z"
         transform="translate(-51.238801,-69.308602)"
         id="path4" />
    </clipPath>
    <clipPath
       clipPathUnits="userSpaceOnUse"
       id="clipPath6">
      <path
         d="M 0,109.596 H 105.175 V 0 H 0 Z"
         transform="translate(-69.182602,-55.806601)"
         id="path6" />
    </clipPath>
    <clipPath
       clipPathUnits="userSpaceOnUse"
       id="clipPath8">
      <path
         d="M 0,109.596 H 105.175 V 0 H 0 Z"
         transform="translate(-52.913101,-24.996098)"
         id="path8" />
    </clipPath>
    <clipPath
       clipPathUnits="userSpaceOnUse"
       id="clipPath10">
      <path
         d="M 0,109.596 H 105.175 V 0 H 0 Z"
         transform="translate(-36.357901,-71.938502)"
         id="path10" />
    </clipPath>
    <clipPath
       clipPathUnits="userSpaceOnUse"
       id="clipPath12">
      <path
         d="M 0,109.596 H 105.175 V 0 H 0 Z"
         transform="translate(-51.238801,-69.308602)"
         id="path12" />
    </clipPath>
    <clipPath
       clipPathUnits="userSpaceOnUse"
       id="clipPath14">
      <path
         d="M 0,109.596 H 105.175 V 0 H 0 Z"
         transform="translate(-69.182602,-55.806601)"
         id="path14" />
    </clipPath>
    <clipPath
       clipPathUnits="userSpaceOnUse"
       id="clipPath16">
      <path
         d="M 0,109.596 H 105.175 V 0 H 0 Z"
         transform="translate(-52.913101,-24.996098)"
         id="path16" />
    </clipPath>
  </defs>
  <g
     id="layer-MC0">
    <path
       id="path1"
       d="m 0,0 c -2.25,0 -4.031,-0.556 -5.341,-1.669 -1.315,-1.112 -1.97,-2.67 -1.97,-4.672 v -10.903 c 0,-2.001 0.655,-3.559 1.97,-4.671 0.802,-0.682 1.803,-1.129 2.957,-1.394 v -9.23 c 0,-0.29 -0.238,-0.527 -0.528,-0.527 h -1.309 c -0.29,0 -0.359,-0.169 -0.154,-0.373 l 3.894,-3.894 c 0.206,-0.206 0.54,-0.206 0.746,0 l 3.893,3.894 c 0.206,0.204 0.135,0.373 -0.155,0.373 H 2.694 c -0.29,0 -0.527,0.237 -0.527,0.527 v 9.184 c 1.25,0.252 2.323,0.716 3.176,1.44 1.312,1.112 1.967,2.67 1.967,4.671 v 2.234 c 0,0.31 -0.175,0.462 -0.526,0.462 H 2.367 c -0.908,0 -0.951,-0.152 -0.951,-0.462 v -1.395 c 0,-0.717 -0.09,-1.186 -0.273,-1.409 -0.179,-0.225 -0.634,-0.338 -1.358,-0.338 -0.722,0 -1.179,0.113 -1.36,0.338 -0.18,0.223 -0.271,0.692 -0.271,1.409 v 9.513 c 0,0.716 0.091,1.186 0.271,1.411 0.181,0.223 0.638,0.336 1.36,0.336 0.724,0 1.179,-0.113 1.358,-0.336 0.183,-0.225 0.273,-0.695 0.273,-1.411 v -1.683 c 0,-0.307 0.043,-0.461 0.951,-0.461 h 4.417 c 0.351,0 0.526,0.154 0.526,0.461 v 2.234 c 0,2.002 -0.655,3.56 -1.967,4.672 C 4.03,-0.556 2.25,0 0,0"
       style="fill:#1d1d1b;fill-opacity:1;fill-rule:nonzero;stroke:none"
       transform="matrix(1.3333333,0,0,-1.3333333,48.4772,50.21)"
       clip-path="url(#clipPath2)" />
    <path
       id="path3"
       d="M 0,0 C 0,0.94 0.096,1.561 0.292,1.858 0.486,2.155 0.97,2.306 1.745,2.306 2.523,2.306 3.006,2.155 3.2,1.858 3.396,1.561 3.492,0.94 3.492,0 v -13.128 c 0,-0.942 -0.096,-1.56 -0.292,-1.857 -0.194,-0.299 -0.677,-0.448 -1.455,-0.448 -0.775,0 -1.259,0.149 -1.453,0.448 C 0.096,-14.688 0,-14.07 0,-13.128 Z m 1.745,8.253 c -2.272,0 -4.059,-0.699 -5.359,-2.104 -1.3,-1.404 -1.951,-2.624 -1.951,-5.176 v -14.9 c 0,-2.556 0.651,-3.52 1.951,-4.922 0.817,-0.882 1.849,-1.455 3.05,-1.782 v -15.652 c 0,-0.29 -0.237,-0.528 -0.528,-0.528 h -1.309 c -0.289,0 -0.36,-0.168 -0.154,-0.374 l 3.892,-3.891 c 0.206,-0.205 0.542,-0.206 0.747,0 l 3.894,3.891 c 0.205,0.206 0.136,0.374 -0.154,0.374 h -1.31 c -0.291,0 -0.529,0.238 -0.529,0.528 v 15.633 c 1.232,0.324 2.287,0.902 3.121,1.801 1.3,1.402 1.95,2.366 1.95,4.922 v 14.9 c 0,2.552 -0.65,3.772 -1.95,5.176 C 5.804,7.554 4.018,8.253 1.745,8.253"
       style="fill:#1d1d1b;fill-opacity:1;fill-rule:nonzero;stroke:none"
       transform="matrix(1.3333333,0,0,-1.3333333,68.3184,53.716533)"
       clip-path="url(#clipPath4)" />
    <path
       id="path5"
       d="m 0,0 c 2.895,2.732 7.598,2.843 7.598,7.952 v 1.243 c 0,2.204 -0.65,3.91 -1.952,5.12 -1.3,1.212 -3.087,1.817 -5.36,1.817 -2.272,0 -4.066,-0.605 -5.378,-1.817 -1.312,-1.21 -1.967,-2.916 -1.967,-5.12 V 8.3 c 0,-0.328 0.128,-0.491 0.386,-0.491 h 5.067 c 0.351,0 0.528,0.163 0.528,0.491 v 0.305 c -0.027,0.877 0.092,2.411 1.761,2.237 C 1.977,10.706 1.646,8.885 1.633,8.61 1.583,7.557 -1.026,6.271 -2.104,5.726 -2.76,5.378 -3.322,5.05 -3.79,4.744 -4.261,4.438 -4.775,4.02 -5.337,3.484 -5.9,2.952 -6.328,2.312 -6.62,1.569 -6.914,0.828 -7.059,0.01 -7.059,-0.884 v -5.904 c 0,-0.326 0.175,-0.49 0.526,-0.49 h 4.702 v -9.129 c 0,-0.29 -0.237,-0.528 -0.527,-0.528 h -1.219 c -0.29,0 -0.359,-0.169 -0.154,-0.373 l 3.894,-3.893 c 0.206,-0.206 0.54,-0.206 0.747,0 l 3.892,3.893 c 0.206,0.204 0.135,0.373 -0.155,0.373 h -1.4 c -0.289,0 -0.527,0.238 -0.527,0.528 v 9.129 h 4.068 c 0.353,0 0.528,0.164 0.528,0.49 v 4.335 c 0,0.348 -0.175,0.522 -0.528,0.522 H -0.07 c -0.376,0 -0.563,0.165 -0.563,0.492 v 0.229 c 0,0.457 0.211,0.861 0.633,1.21 0.422,0.349 -0.397,-0.375 0,0 2.895,2.732 -0.397,-0.375 0,0"
       style="fill:#1d1d1b;fill-opacity:1;fill-rule:nonzero;stroke:none"
       transform="matrix(1.3333333,0,0,-1.3333333,92.243467,71.7192)"
       clip-path="url(#clipPath6)" />
    <path
       id="path7"
       d="m 0,0 c -16.432,0 -29.801,13.369 -29.801,29.801 0,16.433 13.369,29.803 29.801,29.803 16.433,0 29.804,-13.37 29.804,-29.803 C 29.804,13.369 16.433,0 0,0 m 0,65.235 c -19.537,0 -35.432,-15.895 -35.432,-35.434 0,-19.537 15.895,-35.432 35.432,-35.432 19.539,0 35.435,15.895 35.435,35.432 C 35.435,49.34 19.539,65.235 0,65.235"
       style="fill:#1d1d1b;fill-opacity:1;fill-rule:nonzero;stroke:none"
       transform="matrix(1.3333333,0,0,-1.3333333,70.5508,112.79987)"
       clip-path="url(#clipPath8)" />
    <path
       id="path9"
       d="m 0,0 c -2.25,0 -4.031,-0.556 -5.341,-1.669 -1.315,-1.112 -1.97,-2.67 -1.97,-4.672 v -10.903 c 0,-2.001 0.655,-3.559 1.97,-4.671 0.802,-0.682 1.803,-1.129 2.957,-1.394 v -9.23 c 0,-0.29 -0.238,-0.527 -0.528,-0.527 h -1.309 c -0.29,0 -0.359,-0.169 -0.154,-0.373 l 3.894,-3.894 c 0.206,-0.206 0.54,-0.206 0.746,0 l 3.893,3.894 c 0.206,0.204 0.135,0.373 -0.155,0.373 H 2.694 c -0.29,0 -0.527,0.237 -0.527,0.527 v 9.184 c 1.25,0.252 2.323,0.716 3.176,1.44 1.312,1.112 1.967,2.67 1.967,4.671 v 2.234 c 0,0.31 -0.175,0.462 -0.526,0.462 H 2.367 c -0.908,0 -0.951,-0.152 -0.951,-0.462 v -1.395 c 0,-0.717 -0.09,-1.186 -0.273,-1.409 -0.179,-0.225 -0.634,-0.338 -1.358,-0.338 -0.722,0 -1.179,0.113 -1.36,0.338 -0.18,0.223 -0.271,0.692 -0.271,1.409 v 9.513 c 0,0.716 0.091,1.186 0.271,1.411 0.181,0.223 0.638,0.336 1.36,0.336 0.724,0 1.179,-0.113 1.358,-0.336 0.183,-0.225 0.273,-0.695 0.273,-1.411 v -1.683 c 0,-0.307 0.043,-0.461 0.951,-0.461 h 4.417 c 0.351,0 0.526,0.154 0.526,0.461 v 2.234 c 0,2.002 -0.655,3.56 -1.967,4.672 C 4.03,-0.556 2.25,0 0,0"
       style="fill:#1d1d1b;fill-opacity:1;fill-rule:nonzero;stroke:none"
       transform="matrix(1.3333333,0,0,-1.3333333,48.4772,50.21)"
       clip-path="url(#clipPath10)" />
    <path
       id="path11"
       d="M 0,0 C 0,0.94 0.096,1.561 0.292,1.858 0.486,2.155 0.97,2.306 1.745,2.306 2.523,2.306 3.006,2.155 3.2,1.858 3.396,1.561 3.492,0.94 3.492,0 v -13.128 c 0,-0.942 -0.096,-1.56 -0.292,-1.857 -0.194,-0.299 -0.677,-0.448 -1.455,-0.448 -0.775,0 -1.259,0.149 -1.453,0.448 C 0.096,-14.688 0,-14.07 0,-13.128 Z m 1.745,8.253 c -2.272,0 -4.059,-0.699 -5.359,-2.104 -1.3,-1.404 -1.951,-2.624 -1.951,-5.176 v -14.9 c 0,-2.556 0.651,-3.52 1.951,-4.922 0.817,-0.882 1.849,-1.455 3.05,-1.782 v -15.652 c 0,-0.29 -0.237,-0.528 -0.528,-0.528 h -1.309 c -0.289,0 -0.36,-0.168 -0.154,-0.374 l 3.892,-3.891 c 0.206,-0.205 0.542,-0.206 0.747,0 l 3.894,3.891 c 0.205,0.206 0.136,0.374 -0.154,0.374 h -1.31 c -0.291,0 -0.529,0.238 -0.529,0.528 v 15.633 c 1.232,0.324 2.287,0.902 3.121,1.801 1.3,1.402 1.95,2.366 1.95,4.922 v 14.9 c 0,2.552 -0.65,3.772 -1.95,5.176 C 5.804,7.554 4.018,8.253 1.745,8.253"
       style="fill:#1d1d1b;fill-opacity:1;fill-rule:nonzero;stroke:none"
       transform="matrix(1.3333333,0,0,-1.3333333,68.3184,53.716533)"
       clip-path="url(#clipPath12)" />
    <path
       id="path13"
       d="m 0,0 c 2.895,2.732 7.598,2.843 7.598,7.952 v 1.243 c 0,2.204 -0.65,3.91 -1.952,5.12 -1.3,1.212 -3.087,1.817 -5.36,1.817 -2.272,0 -4.066,-0.605 -5.378,-1.817 -1.312,-1.21 -1.967,-2.916 -1.967,-5.12 V 8.3 c 0,-0.328 0.128,-0.491 0.386,-0.491 h 5.067 c 0.351,0 0.528,0.163 0.528,0.491 v 0.305 c -0.027,0.877 0.092,2.411 1.761,2.237 C 1.977,10.706 1.646,8.885 1.633,8.61 1.583,7.557 -1.026,6.271 -2.104,5.726 -2.76,5.378 -3.322,5.05 -3.79,4.744 -4.261,4.438 -4.775,4.02 -5.337,3.484 -5.9,2.952 -6.328,2.312 -6.62,1.569 -6.914,0.828 -7.059,0.01 -7.059,-0.884 v -5.904 c 0,-0.326 0.175,-0.49 0.526,-0.49 h 4.702 v -9.129 c 0,-0.29 -0.237,-0.528 -0.527,-0.528 h -1.219 c -0.29,0 -0.359,-0.169 -0.154,-0.373 l 3.894,-3.893 c 0.206,-0.206 0.54,-0.206 0.747,0 l 3.892,3.893 c 0.206,0.204 0.135,0.373 -0.155,0.373 h -1.4 c -0.289,0 -0.527,0.238 -0.527,0.528 v 9.129 h 4.068 c 0.353,0 0.528,0.164 0.528,0.49 v 4.335 c 0,0.348 -0.175,0.522 -0.528,0.522 H -0.07 c -0.376,0 -0.563,0.165 -0.563,0.492 v 0.229 c 0,0.457 0.211,0.861 0.633,1.21 0.422,0.349 -0.397,-0.375 0,0 2.895,2.732 -0.397,-0.375 0,0"
       style="fill:#1d1d1b;fill-opacity:1;fill-rule:nonzero;stroke:none"
       transform="matrix(1.3333333,0,0,-1.3333333,92.243467,71.7192)"
       clip-path="url(#clipPath14)" />
    <path
       id="path15"
       d="m 0,0 c -16.432,0 -29.801,13.369 -29.801,29.801 0,16.433 13.369,29.803 29.801,29.803 16.433,0 29.804,-13.37 29.804,-29.803 C 29.804,13.369 16.433,0 0,0 m 0,65.235 c -19.537,0 -35.432,-15.895 -35.432,-35.434 0,-19.537 15.895,-35.432 35.432,-35.432 19.539,0 35.435,15.895 35.435,35.432 C 35.435,49.34 19.539,65.235 0,65.235"
       style="fill:#1d1d1b;fill-opacity:1;fill-rule:nonzero;stroke:none"
       transform="matrix(1.3333333,0,0,-1.3333333,70.5508,112.79987)"
       clip-path="url(#clipPath16)" />
  </g>
</svg>
