<?xml version="1.0" encoding="UTF-8" standalone="no"?>
<!-- Created with Inkscape (http://www.inkscape.org/) -->

<svg
   version="1.1"
   id="svg1"
   width="140.23334"
   height="146.12801"
   viewBox="0 0 140.23334 146.12801"
   xmlns="http://www.w3.org/2000/svg"
   xmlns:svg="http://www.w3.org/2000/svg">
  <defs
     id="defs1">
    <clipPath
       clipPathUnits="userSpaceOnUse"
       id="clipPath2">
      <path
         d="M 0,109.596 H 105.175 V 0 H 0 Z"
         transform="translate(-38.341301,-68.510702)"
         id="path2" />
    </clipPath>
    <clipPath
       clipPathUnits="userSpaceOnUse"
       id="clipPath4">
      <path
         d="M 0,109.596 H 105.175 V 0 H 0 Z"
         transform="translate(-50.948701,-66.406301)"
         id="path4" />
    </clipPath>
    <clipPath
       clipPathUnits="userSpaceOnUse"
       id="clipPath6">
      <path
         d="M 0,109.596 H 105.175 V 0 H 0 Z"
         transform="translate(-65.699702,-55.931602)"
         id="path6" />
    </clipPath>
    <clipPath
       clipPathUnits="userSpaceOnUse"
       id="clipPath8">
      <path
         d="M 0,109.596 H 105.175 V 0 H 0 Z"
         transform="translate(-52.586401,-29.377898)"
         id="path8" />
    </clipPath>
    <clipPath
       clipPathUnits="userSpaceOnUse"
       id="clipPath10">
      <path
         d="M 0,109.596 H 105.175 V 0 H 0 Z"
         transform="translate(-38.341301,-68.510702)"
         id="path10" />
    </clipPath>
    <clipPath
       clipPathUnits="userSpaceOnUse"
       id="clipPath12">
      <path
         d="M 0,109.596 H 105.175 V 0 H 0 Z"
         transform="translate(-50.948701,-66.406301)"
         id="path12" />
    </clipPath>
    <clipPath
       clipPathUnits="userSpaceOnUse"
       id="clipPath14">
      <path
         d="M 0,109.596 H 105.175 V 0 H 0 Z"
         transform="translate(-65.699702,-55.931602)"
         id="path14" />
    </clipPath>
    <clipPath
       clipPathUnits="userSpaceOnUse"
       id="clipPath16">
      <path
         d="M 0,109.596 H 105.175 V 0 H 0 Z"
         transform="translate(-52.586401,-29.377898)"
         id="path16" />
    </clipPath>
  </defs>
  <g
     id="layer-MC0">
    <path
       id="path1"
       d="m 0,0 c -1.8,0 -3.225,-0.444 -4.273,-1.335 -1.051,-0.891 -1.576,-2.136 -1.576,-3.737 v -8.724 c 0,-1.6 0.525,-2.847 1.576,-3.736 0.642,-0.546 1.741,-0.904 2.664,-1.115 v -7.385 c 0,-0.232 -0.19,-0.422 -0.422,-0.422 h -1.346 c -0.232,0 -0.287,-0.135 -0.123,-0.299 l 3.114,-3.114 c 0.165,-0.165 0.433,-0.165 0.598,0 l 3.114,3.114 c 0.164,0.164 0.108,0.299 -0.123,0.299 H 1.857 c -0.232,0 -0.421,0.19 -0.421,0.422 v 7.347 c 1,0.203 2.156,0.574 2.838,1.153 1.05,0.889 1.574,2.136 1.574,3.736 v 1.788 c 0,0.247 -0.14,0.369 -0.421,0.369 H 2.191 c -0.724,0 -0.759,-0.122 -0.759,-0.369 v -1.117 c 0,-0.573 -0.073,-0.948 -0.219,-1.127 -0.144,-0.18 -0.807,-0.568 -1.385,-0.568 -0.578,0 -1.241,0.388 -1.387,0.568 -0.143,0.179 -0.216,0.554 -0.216,1.127 v 7.611 c 0,0.574 0.073,0.949 0.216,1.128 0.146,0.18 0.809,0.491 1.387,0.491 0.578,0 1.241,-0.311 1.385,-0.491 0.146,-0.179 0.219,-0.554 0.219,-1.128 V -6.86 c 0,-0.245 0.035,-0.369 0.759,-0.369 h 3.236 c 0.281,0 0.421,0.124 0.421,0.369 v 1.788 c 0,1.601 -0.524,2.846 -1.574,3.737 C 3.224,-0.444 1.8,0 0,0"
       style="fill:#1d1d1b;fill-opacity:1;fill-rule:nonzero;stroke:none"
       transform="matrix(1.3333333,0,0,-1.3333333,51.121733,54.7804)"
       clip-path="url(#clipPath2)" />
    <path
       id="path3"
       d="M 0,0 C 0,0.753 0.077,1.249 0.233,1.487 0.39,1.725 1.073,2.104 1.694,2.104 2.316,2.104 3.001,1.725 3.155,1.487 3.313,1.249 3.39,0.753 3.39,0 v -10.502 c 0,-0.754 -0.077,-1.249 -0.235,-1.486 -0.154,-0.239 -0.839,-0.678 -1.461,-0.678 -0.621,0 -1.304,0.439 -1.461,0.678 C 0.077,-11.751 0,-11.256 0,-10.502 Z m 1.694,6.604 c -1.818,0 -3.248,-0.561 -4.288,-1.684 -1.04,-1.123 -1.56,-2.099 -1.56,-4.142 v -11.92 c 0,-2.045 0.52,-2.816 1.56,-3.937 0.654,-0.706 1.779,-1.164 2.74,-1.426 v -12.521 c 0,-0.233 -0.19,-0.422 -0.423,-0.422 h -1.345 c -0.232,0 -0.289,-0.136 -0.124,-0.299 l 3.114,-3.114 c 0.164,-0.164 0.434,-0.165 0.598,0 l 3.114,3.114 c 0.164,0.164 0.108,0.299 -0.123,0.299 H 3.611 c -0.233,0 -0.423,0.189 -0.423,0.422 v 12.505 c 0.986,0.259 2.127,0.722 2.795,1.442 1.039,1.121 1.56,1.892 1.56,3.937 v 11.92 c 0,2.043 -0.521,3.019 -1.56,4.142 -1.042,1.123 -2.47,1.684 -4.289,1.684"
       style="fill:#1d1d1b;fill-opacity:1;fill-rule:nonzero;stroke:none"
       transform="matrix(1.3333333,0,0,-1.3333333,67.9316,57.586267)"
       clip-path="url(#clipPath4)" />
    <path
       id="path5"
       d="m 0,0 c 2.312,2.189 6.981,2.501 6.981,6.589 v 0.44 c 0,1.764 -0.52,3.128 -1.562,4.097 -1.039,0.97 -2.469,1.453 -4.287,1.453 -1.819,0 -3.153,-0.483 -4.203,-1.453 C -4.12,10.157 -4.645,8.793 -4.645,7.029 V 6.313 c 0,-0.262 0.103,-0.392 0.309,-0.392 h 3.303 c 0.281,0 0.423,0.13 0.423,0.392 V 6.558 C -0.632,7.259 -0.884,8.811 1.118,8.833 3.304,8.858 2.817,6.976 2.808,6.757 2.767,5.914 0.181,4.689 -0.681,4.254 -1.206,3.976 -1.655,3.713 -2.029,3.468 -2.405,3.224 -2.817,2.89 -3.267,2.46 -3.718,2.034 -4.061,1.522 -4.294,0.929 -4.528,0.336 -4.645,-0.318 -4.645,-1.033 v -4.725 c 0,-0.261 0.14,-0.391 0.421,-0.391 h 3.959 v -7.304 c 0,-0.232 -0.189,-0.422 -0.422,-0.422 h -1.271 c -0.232,0 -0.287,-0.135 -0.123,-0.299 l 3.114,-3.114 c 0.165,-0.165 0.433,-0.165 0.597,0 l 3.114,3.114 c 0.165,0.164 0.109,0.299 -0.123,0.299 H 3.202 c -0.232,0 -0.422,0.19 -0.422,0.422 v 7.304 h 3.553 c 0.282,0 0.423,0.13 0.423,0.391 v 2.871 c 0,0.279 -0.141,0.419 -0.423,0.419 h -6.381 c -0.301,0 -0.451,0.132 -0.451,0.393 v 0.183 c 0,0.367 0.01,1.43 0.499,1.892"
       style="fill:#1d1d1b;fill-opacity:1;fill-rule:nonzero;stroke:none"
       transform="matrix(1.3333333,0,0,-1.3333333,87.5996,71.552533)"
       clip-path="url(#clipPath6)" />
    <path
       id="path7"
       d="M 0,0 C -14.016,0 -25.42,11.403 -25.42,25.419 -25.42,39.436 -14.016,50.84 0,50.84 14.016,50.84 25.421,39.436 25.421,25.419 25.421,11.403 14.016,0 0,0 m 0,53.767 c -15.63,0 -28.346,-12.717 -28.346,-28.348 0,-15.63 12.716,-28.346 28.346,-28.346 15.631,0 28.348,12.716 28.348,28.346 C 28.348,41.05 15.631,53.767 0,53.767"
       style="fill:#1d1d1b;fill-opacity:1;fill-rule:nonzero;stroke:none"
       transform="matrix(1.3333333,0,0,-1.3333333,70.1152,106.95747)"
       clip-path="url(#clipPath8)" />
    <path
       id="path9"
       d="m 0,0 c -1.8,0 -3.225,-0.444 -4.273,-1.335 -1.051,-0.891 -1.576,-2.136 -1.576,-3.737 v -8.724 c 0,-1.6 0.525,-2.847 1.576,-3.736 0.642,-0.546 1.741,-0.904 2.664,-1.115 v -7.385 c 0,-0.232 -0.19,-0.422 -0.422,-0.422 h -1.346 c -0.232,0 -0.287,-0.135 -0.123,-0.299 l 3.114,-3.114 c 0.165,-0.165 0.433,-0.165 0.598,0 l 3.114,3.114 c 0.164,0.164 0.108,0.299 -0.123,0.299 H 1.857 c -0.232,0 -0.421,0.19 -0.421,0.422 v 7.347 c 1,0.203 2.156,0.574 2.838,1.153 1.05,0.889 1.574,2.136 1.574,3.736 v 1.788 c 0,0.247 -0.14,0.369 -0.421,0.369 H 2.191 c -0.724,0 -0.759,-0.122 -0.759,-0.369 v -1.117 c 0,-0.573 -0.073,-0.948 -0.219,-1.127 -0.144,-0.18 -0.807,-0.568 -1.385,-0.568 -0.578,0 -1.241,0.388 -1.387,0.568 -0.143,0.179 -0.216,0.554 -0.216,1.127 v 7.611 c 0,0.574 0.073,0.949 0.216,1.128 0.146,0.18 0.809,0.491 1.387,0.491 0.578,0 1.241,-0.311 1.385,-0.491 0.146,-0.179 0.219,-0.554 0.219,-1.128 V -6.86 c 0,-0.245 0.035,-0.369 0.759,-0.369 h 3.236 c 0.281,0 0.421,0.124 0.421,0.369 v 1.788 c 0,1.601 -0.524,2.846 -1.574,3.737 C 3.224,-0.444 1.8,0 0,0"
       style="fill:#1d1d1b;fill-opacity:1;fill-rule:nonzero;stroke:none"
       transform="matrix(1.3333333,0,0,-1.3333333,51.121733,54.7804)"
       clip-path="url(#clipPath10)" />
    <path
       id="path11"
       d="M 0,0 C 0,0.753 0.077,1.249 0.233,1.487 0.39,1.725 1.073,2.104 1.694,2.104 2.316,2.104 3.001,1.725 3.155,1.487 3.313,1.249 3.39,0.753 3.39,0 v -10.502 c 0,-0.754 -0.077,-1.249 -0.235,-1.486 -0.154,-0.239 -0.839,-0.678 -1.461,-0.678 -0.621,0 -1.304,0.439 -1.461,0.678 C 0.077,-11.751 0,-11.256 0,-10.502 Z m 1.694,6.604 c -1.818,0 -3.248,-0.561 -4.288,-1.684 -1.04,-1.123 -1.56,-2.099 -1.56,-4.142 v -11.92 c 0,-2.045 0.52,-2.816 1.56,-3.937 0.654,-0.706 1.779,-1.164 2.74,-1.426 v -12.521 c 0,-0.233 -0.19,-0.422 -0.423,-0.422 h -1.345 c -0.232,0 -0.289,-0.136 -0.124,-0.299 l 3.114,-3.114 c 0.164,-0.164 0.434,-0.165 0.598,0 l 3.114,3.114 c 0.164,0.164 0.108,0.299 -0.123,0.299 H 3.611 c -0.233,0 -0.423,0.189 -0.423,0.422 v 12.505 c 0.986,0.259 2.127,0.722 2.795,1.442 1.039,1.121 1.56,1.892 1.56,3.937 v 11.92 c 0,2.043 -0.521,3.019 -1.56,4.142 -1.042,1.123 -2.47,1.684 -4.289,1.684"
       style="fill:#1d1d1b;fill-opacity:1;fill-rule:nonzero;stroke:none"
       transform="matrix(1.3333333,0,0,-1.3333333,67.9316,57.586267)"
       clip-path="url(#clipPath12)" />
    <path
       id="path13"
       d="m 0,0 c 2.312,2.189 6.981,2.501 6.981,6.589 v 0.44 c 0,1.764 -0.52,3.128 -1.562,4.097 -1.039,0.97 -2.469,1.453 -4.287,1.453 -1.819,0 -3.153,-0.483 -4.203,-1.453 C -4.12,10.157 -4.645,8.793 -4.645,7.029 V 6.313 c 0,-0.262 0.103,-0.392 0.309,-0.392 h 3.303 c 0.281,0 0.423,0.13 0.423,0.392 V 6.558 C -0.632,7.259 -0.884,8.811 1.118,8.833 3.304,8.858 2.817,6.976 2.808,6.757 2.767,5.914 0.181,4.689 -0.681,4.254 -1.206,3.976 -1.655,3.713 -2.029,3.468 -2.405,3.224 -2.817,2.89 -3.267,2.46 -3.718,2.034 -4.061,1.522 -4.294,0.929 -4.528,0.336 -4.645,-0.318 -4.645,-1.033 v -4.725 c 0,-0.261 0.14,-0.391 0.421,-0.391 h 3.959 v -7.304 c 0,-0.232 -0.189,-0.422 -0.422,-0.422 h -1.271 c -0.232,0 -0.287,-0.135 -0.123,-0.299 l 3.114,-3.114 c 0.165,-0.165 0.433,-0.165 0.597,0 l 3.114,3.114 c 0.165,0.164 0.109,0.299 -0.123,0.299 H 3.202 c -0.232,0 -0.422,0.19 -0.422,0.422 v 7.304 h 3.553 c 0.282,0 0.423,0.13 0.423,0.391 v 2.871 c 0,0.279 -0.141,0.419 -0.423,0.419 h -6.381 c -0.301,0 -0.451,0.132 -0.451,0.393 v 0.183 c 0,0.367 0.01,1.43 0.499,1.892"
       style="fill:#1d1d1b;fill-opacity:1;fill-rule:nonzero;stroke:none"
       transform="matrix(1.3333333,0,0,-1.3333333,87.5996,71.552533)"
       clip-path="url(#clipPath14)" />
    <path
       id="path15"
       d="M 0,0 C -14.016,0 -25.42,11.403 -25.42,25.419 -25.42,39.436 -14.016,50.84 0,50.84 14.016,50.84 25.421,39.436 25.421,25.419 25.421,11.403 14.016,0 0,0 m 0,53.767 c -15.63,0 -28.346,-12.717 -28.346,-28.348 0,-15.63 12.716,-28.346 28.346,-28.346 15.631,0 28.348,12.716 28.348,28.346 C 28.348,41.05 15.631,53.767 0,53.767"
       style="fill:#1d1d1b;fill-opacity:1;fill-rule:nonzero;stroke:none"
       transform="matrix(1.3333333,0,0,-1.3333333,70.1152,106.95747)"
       clip-path="url(#clipPath16)" />
  </g>
</svg>
