<?xml version="1.0" encoding="UTF-8" standalone="no"?>
<!-- Created with Inkscape (http://www.inkscape.org/) -->

<svg
   version="1.1"
   id="svg1"
   width="294.13599"
   height="146.12801"
   viewBox="0 0 294.13599 146.12801"
   xmlns="http://www.w3.org/2000/svg"
   xmlns:svg="http://www.w3.org/2000/svg">
  <defs
     id="defs1">
    <clipPath
       clipPathUnits="userSpaceOnUse"
       id="clipPath2">
      <path
         d="M 0,109.596 H 220.602 V 0 H 0 Z"
         transform="translate(-46.489301,-71.739302)"
         id="path2" />
    </clipPath>
    <clipPath
       clipPathUnits="userSpaceOnUse"
       id="clipPath4">
      <path
         d="M 0,109.596 H 220.602 V 0 H 0 Z"
         transform="translate(-60.690902,-56.382802)"
         id="path4" />
    </clipPath>
    <clipPath
       clipPathUnits="userSpaceOnUse"
       id="clipPath6">
      <path
         d="M 0,109.596 H 220.602 V 0 H 0 Z"
         transform="translate(-76.435502,-55.967801)"
         id="path6" />
    </clipPath>
    <clipPath
       clipPathUnits="userSpaceOnUse"
       id="clipPath8">
      <path
         d="M 0,109.596 H 220.602 V 0 H 0 Z"
         transform="translate(-70.892602,-71.578102)"
         id="path8" />
    </clipPath>
    <clipPath
       clipPathUnits="userSpaceOnUse"
       id="clipPath10">
      <path
         d="M 0,109.596 H 220.602 V 0 H 0 Z"
         transform="translate(-58.710001,-22.392601)"
         id="path10" />
    </clipPath>
    <clipPath
       clipPathUnits="userSpaceOnUse"
       id="clipPath12">
      <path
         d="M 0,109.596 H 220.602 V 0 H 0 Z"
         transform="translate(-110.1265,-69.255902)"
         id="path12" />
    </clipPath>
    <clipPath
       clipPathUnits="userSpaceOnUse"
       id="clipPath14">
      <path
         d="M 0,109.596 H 220.602 V 0 H 0 Z"
         transform="translate(-121.5273,-75.307602)"
         id="path14" />
    </clipPath>
    <clipPath
       clipPathUnits="userSpaceOnUse"
       id="clipPath16">
      <path
         d="M 0,109.596 H 220.602 V 0 H 0 Z"
         transform="translate(-134.2021,-69.255902)"
         id="path16" />
    </clipPath>
    <clipPath
       clipPathUnits="userSpaceOnUse"
       id="clipPath18">
      <path
         d="M 0,109.596 H 220.602 V 0 H 0 Z"
         transform="translate(-154.3735,-71.123002)"
         id="path18" />
    </clipPath>
    <clipPath
       clipPathUnits="userSpaceOnUse"
       id="clipPath20">
      <path
         d="M 0,109.596 H 220.602 V 0 H 0 Z"
         transform="translate(-171.27201,-77.592802)"
         id="path20" />
    </clipPath>
    <clipPath
       clipPathUnits="userSpaceOnUse"
       id="clipPath22">
      <path
         d="M 0,109.596 H 220.602 V 0 H 0 Z"
         transform="translate(-186.7422,-78.619102)"
         id="path22" />
    </clipPath>
    <clipPath
       clipPathUnits="userSpaceOnUse"
       id="clipPath24">
      <path
         d="M 0,109.596 H 220.602 V 0 H 0 Z"
         transform="translate(-110.1265,-61.182602)"
         id="path24" />
    </clipPath>
    <clipPath
       clipPathUnits="userSpaceOnUse"
       id="clipPath26">
      <path
         d="M 0,109.596 H 220.602 V 0 H 0 Z"
         transform="translate(-127.9087,-55.262701)"
         id="path26" />
    </clipPath>
    <clipPath
       clipPathUnits="userSpaceOnUse"
       id="clipPath28">
      <path
         d="M 0,109.596 H 220.602 V 0 H 0 Z"
         transform="translate(-138.5688,-50.539102)"
         id="path28" />
    </clipPath>
    <clipPath
       clipPathUnits="userSpaceOnUse"
       id="clipPath30">
      <path
         d="M 0,109.596 H 220.602 V 0 H 0 Z"
         transform="translate(-148.2891,-56.432602)"
         id="path30" />
    </clipPath>
    <clipPath
       clipPathUnits="userSpaceOnUse"
       id="clipPath32">
      <path
         d="M 0,109.596 H 220.602 V 0 H 0 Z"
         transform="translate(-162.2383,-50.819302)"
         id="path32" />
    </clipPath>
    <clipPath
       clipPathUnits="userSpaceOnUse"
       id="clipPath34">
      <path
         d="M 0,109.596 H 220.602 V 0 H 0 Z"
         transform="translate(-174.99561,-60.271502)"
         id="path34" />
    </clipPath>
    <clipPath
       clipPathUnits="userSpaceOnUse"
       id="clipPath36">
      <path
         d="M 0,109.596 H 220.602 V 0 H 0 Z"
         transform="translate(-180.3838,-55.449202)"
         id="path36" />
    </clipPath>
    <clipPath
       clipPathUnits="userSpaceOnUse"
       id="clipPath38">
      <path
         d="M 0,109.596 H 220.602 V 0 H 0 Z"
         transform="translate(-199.1328,-57.745102)"
         id="path38" />
    </clipPath>
    <clipPath
       clipPathUnits="userSpaceOnUse"
       id="clipPath40">
      <path
         d="M 0,109.596 H 220.602 V 0 H 0 Z"
         transform="translate(-114.7119,-36.518601)"
         id="path40" />
    </clipPath>
    <clipPath
       clipPathUnits="userSpaceOnUse"
       id="clipPath42">
      <path
         d="M 0,109.596 H 220.602 V 0 H 0 Z"
         transform="translate(-126.0474,-29.730503)"
         id="path42" />
    </clipPath>
    <clipPath
       clipPathUnits="userSpaceOnUse"
       id="clipPath44">
      <path
         d="M 0,109.596 H 220.602 V 0 H 0 Z"
         transform="translate(-139.9033,-32.932598)"
         id="path44" />
    </clipPath>
    <clipPath
       clipPathUnits="userSpaceOnUse"
       id="clipPath46">
      <path
         d="M 0,109.596 H 220.602 V 0 H 0 Z"
         transform="translate(-152.38041,-34.173803)"
         id="path46" />
    </clipPath>
    <clipPath
       clipPathUnits="userSpaceOnUse"
       id="clipPath48">
      <path
         d="M 0,109.596 H 220.602 V 0 H 0 Z"
         transform="translate(-163.7266,-39.182601)"
         id="path48" />
    </clipPath>
  </defs>
  <g
     id="layer-MC0">
    <path
       id="path1"
       d="m 0,0 c -1.432,1.214 -3.372,1.818 -5.825,1.818 -2.451,0 -4.392,-0.604 -5.821,-1.818 -1.433,-1.213 -2.146,-2.91 -2.146,-5.092 v -11.886 c 0,-2.179 0.713,-3.878 2.146,-5.089 0.875,-0.744 1.965,-1.231 3.223,-1.519 v -10.061 c 0,-0.317 -0.259,-0.576 -0.575,-0.576 h -1.427 c -0.316,0 -0.391,-0.183 -0.168,-0.407 l 4.244,-4.243 c 0.224,-0.225 0.589,-0.225 0.814,0 l 4.242,4.243 c 0.225,0.224 0.148,0.407 -0.167,0.407 h -1.428 c -0.316,0 -0.575,0.259 -0.575,0.576 v 10.009 c 1.363,0.277 2.532,0.782 3.463,1.571 1.43,1.211 2.144,2.91 2.144,5.089 v 2.437 c 0,0.337 -0.191,0.503 -0.574,0.503 h -4.815 c -0.988,0 -1.036,-0.166 -1.036,-0.503 v -1.521 c 0,-0.782 -0.098,-1.292 -0.297,-1.537 -0.196,-0.244 -0.692,-0.368 -1.481,-0.368 -0.787,0 -1.284,0.124 -1.483,0.368 -0.195,0.245 -0.294,0.755 -0.294,1.537 v 10.369 c 0,0.781 0.099,1.293 0.294,1.537 0.199,0.244 0.696,0.367 1.483,0.367 0.789,0 1.285,-0.123 1.481,-0.367 0.199,-0.244 0.297,-0.756 0.297,-1.537 v -1.834 c 0,-0.335 0.048,-0.503 1.036,-0.503 H 1.57 c 0.383,0 0.574,0.168 0.574,0.503 v 2.435 C 2.144,-2.91 1.43,-1.213 0,0"
       style="fill:#1d1d1b;fill-opacity:1;fill-rule:nonzero;stroke:none"
       transform="matrix(1.3333333,0,0,-1.3333333,61.985733,50.4756)"
       clip-path="url(#clipPath2)" />
    <path
       id="path3"
       d="m 0,0 c 0,-1.027 -0.104,-1.701 -0.318,-2.025 -0.212,-0.325 -0.738,-0.488 -1.586,-0.488 -0.845,0 -1.372,0.163 -1.584,0.488 -0.214,0.324 -0.318,0.998 -0.318,2.025 v 14.309 c 0,1.025 0.104,1.701 0.318,2.026 0.212,0.323 0.739,0.487 1.584,0.487 0.848,0 1.374,-0.164 1.586,-0.487 C -0.104,16.01 0,15.334 0,14.309 Z m -1.904,23.305 c -2.477,0 -4.425,-0.763 -5.842,-2.293 -1.417,-1.531 -2.127,-2.86 -2.127,-5.644 V -0.871 c 0,-2.786 0.71,-3.837 2.127,-5.364 0.891,-0.962 2.016,-1.586 3.325,-1.944 v -17.06 c 0,-0.316 -0.259,-0.574 -0.576,-0.574 h -1.426 c -0.316,0 -0.392,-0.185 -0.168,-0.408 l 4.242,-4.242 c 0.225,-0.224 0.591,-0.224 0.815,0 l 4.243,4.242 c 0.224,0.225 0.148,0.408 -0.167,0.408 H 1.114 c -0.317,0 -0.576,0.258 -0.576,0.574 v 17.04 c 1.343,0.352 2.492,0.983 3.402,1.964 1.416,1.527 2.125,2.578 2.125,5.364 v 16.239 c 0,2.784 -0.709,4.113 -2.125,5.644 -1.419,1.53 -3.366,2.293 -5.844,2.293"
       style="fill:#1d1d1b;fill-opacity:1;fill-rule:nonzero;stroke:none"
       transform="matrix(1.3333333,0,0,-1.3333333,80.9212,70.950933)"
       clip-path="url(#clipPath4)" />
    <path
       id="path5"
       d="m 0,0 c 0.001,0.002 0.001,0.002 0.003,0.003 -0.04,-0.033 -0.068,-0.069 -0.105,-0.104 -0.057,-0.064 0.49,0.422 0.111,0.11 L 0.01,0.01 C 0.01,0.009 0.009,0.009 0.008,0.008 Z"
       style="fill:#1d1d1b;fill-opacity:1;fill-rule:nonzero;stroke:none"
       transform="matrix(1.3333333,0,0,-1.3333333,101.914,71.504267)"
       clip-path="url(#clipPath6)" />
    <path
       id="path7"
       d="m 0,0 c -1.43,-1.318 -2.144,-3.179 -2.144,-5.581 v -0.976 c 0,-0.357 0.14,-0.535 0.42,-0.535 h 5.523 c 0.384,0 0.576,0.178 0.576,0.535 v 0.333 c -0.03,0.956 0.101,2.628 1.919,2.438 C 7.705,-3.935 7.345,-5.919 7.331,-6.218 7.275,-7.366 4.433,-8.769 3.257,-9.362 2.542,-9.741 1.929,-10.1 1.419,-10.433 c -0.513,-0.333 -1.073,-0.789 -1.686,-1.373 -0.613,-0.58 -1.08,-1.278 -1.399,-2.087 -0.319,-0.807 -0.478,-1.699 -0.478,-2.673 v -6.436 c 0,-0.355 0.19,-0.534 0.574,-0.534 h 5.125 v -9.95 c 0,-0.317 -0.259,-0.576 -0.575,-0.576 H 1.652 c -0.316,0 -0.391,-0.183 -0.168,-0.407 l 4.244,-4.243 c 0.224,-0.225 0.589,-0.225 0.814,0 l 4.242,4.243 c 0.225,0.224 0.148,0.407 -0.168,0.407 H 9.09 c -0.316,0 -0.575,0.259 -0.575,0.576 v 9.95 h 4.434 c 0.384,0 0.576,0.179 0.576,0.534 v 4.725 c 0,0.379 -0.192,0.569 -0.576,0.569 H 5.474 c -0.41,0 -0.613,0.18 -0.613,0.535 v 0.251 c 0,0.453 0.2,0.856 0.58,1.211 0.011,0.013 0.038,0.04 0.102,0.101 -0.032,-0.03 -0.038,-0.036 0.008,0.007 2.771,2.617 0.34,0.321 0.002,0.002 3.155,2.976 8.279,3.097 8.279,8.665 v 1.355 c 0,2.402 -0.708,4.263 -2.128,5.581 C 10.287,1.322 8.339,1.979 5.862,1.979 3.386,1.979 1.43,1.322 0,0"
       style="fill:#1d1d1b;fill-opacity:1;fill-rule:nonzero;stroke:none"
       transform="matrix(1.3333333,0,0,-1.3333333,94.523467,50.690533)"
       clip-path="url(#clipPath8)" />
    <path
       id="path9"
       d="m 0,0 c -17.911,0 -32.482,14.571 -32.482,32.482 0,17.912 14.571,32.485 32.482,32.485 17.912,0 32.485,-14.573 32.485,-32.485 C 32.485,14.571 17.912,0 0,0 m 0,71.104 c -21.295,0 -38.62,-17.326 -38.62,-38.622 0,-21.294 17.325,-38.62 38.62,-38.62 21.296,0 38.623,17.326 38.623,38.62 0,21.296 -17.327,38.622 -38.623,38.622"
       style="fill:#1d1d1b;fill-opacity:1;fill-rule:nonzero;stroke:none"
       transform="matrix(1.3333333,0,0,-1.3333333,78.28,116.2712)"
       clip-path="url(#clipPath10)" />
    <path
       id="path11"
       d="M 0,0 H 6.711 V 2.966 H 0 V 15.992 H -3.855 V 0 h 2.482 z"
       style="fill:#1d1d1b;fill-opacity:1;fill-rule:nonzero;stroke:none"
       transform="matrix(1.3333333,0,0,-1.3333333,146.83533,53.7868)"
       clip-path="url(#clipPath12)" />
    <path
       id="path13"
       d="M 0,0 C 0,0.433 0.033,0.841 0.099,1.225 0.165,1.609 0.274,1.95 0.428,2.246 0.582,2.543 0.789,2.775 1.049,2.944 1.309,3.112 1.633,3.196 2.021,3.196 2.417,3.196 2.746,3.112 3.009,2.944 3.273,2.775 3.482,2.543 3.636,2.246 3.79,1.95 3.899,1.609 3.965,1.225 4.031,0.841 4.064,0.433 4.064,0 V -0.23 C 4.064,-0.677 4.031,-1.095 3.965,-1.482 3.899,-1.871 3.79,-2.209 3.636,-2.498 3.482,-2.788 3.275,-3.013 3.015,-3.174 2.755,-3.335 2.431,-3.416 2.043,-3.416 1.647,-3.416 1.318,-3.335 1.054,-3.174 0.791,-3.013 0.582,-2.788 0.428,-2.498 0.274,-2.209 0.165,-1.871 0.099,-1.482 0.033,-1.095 0,-0.677 0,-0.23 Z m 2.043,-6.271 c 0.93,0 1.75,0.15 2.46,0.45 0.71,0.3 1.308,0.723 1.79,1.268 0.484,0.546 0.85,1.187 1.099,1.923 0.249,0.735 0.374,1.535 0.374,2.4 V 0 C 7.766,0.871 7.641,1.675 7.392,2.411 7.143,3.147 6.777,3.786 6.293,4.328 5.811,4.87 5.212,5.293 4.498,5.597 3.784,5.9 2.958,6.053 2.021,6.053 1.091,6.053 0.271,5.9 -0.439,5.597 -1.15,5.293 -1.747,4.87 -2.23,4.328 -2.713,3.786 -3.079,3.147 -3.328,2.411 -3.577,1.675 -3.702,0.871 -3.702,0 v -0.23 c 0,-0.865 0.125,-1.665 0.374,-2.4 0.249,-0.736 0.615,-1.377 1.098,-1.923 0.483,-0.545 1.084,-0.968 1.802,-1.268 0.717,-0.3 1.541,-0.45 2.471,-0.45"
       style="fill:#1d1d1b;fill-opacity:1;fill-rule:nonzero;stroke:none"
       transform="matrix(1.3333333,0,0,-1.3333333,162.0364,45.717867)"
       clip-path="url(#clipPath14)" />
    <path
       id="path15"
       d="M 0,0 H 0.989 1.856 L 3.846,7.042 5.8,0 h 0.889 0.989 1.263 l 2.79,11.885 H 8.183 L 6.992,4.854 5.119,11.885 H 4.855 2.878 2.538 L 0.651,4.718 -0.527,11.885 H -4.075 L -1.263,0 Z"
       style="fill:#1d1d1b;fill-opacity:1;fill-rule:nonzero;stroke:none"
       transform="matrix(1.3333333,0,0,-1.3333333,178.93613,53.7868)"
       clip-path="url(#clipPath16)" />
    <path
       id="path17"
       d="m 0,0 c 0.582,-0.674 1.292,-1.19 2.131,-1.549 0.838,-0.358 1.792,-0.538 2.861,-0.538 1.318,0 2.462,0.236 3.432,0.709 0.971,0.472 1.73,1.133 2.28,1.982 0.549,0.849 0.849,1.831 0.9,2.944 H 7.76 C 7.745,2.947 7.628,2.455 7.409,2.07 7.189,1.687 6.877,1.4 6.475,1.214 6.072,1.027 5.578,0.934 4.992,0.934 4.465,0.934 4.02,1.023 3.658,1.203 3.295,1.382 3,1.662 2.773,2.043 2.546,2.424 2.381,2.914 2.279,3.515 2.176,4.115 2.125,4.84 2.125,5.689 v 0.89 c 0,0.85 0.057,1.576 0.17,2.181 0.114,0.603 0.288,1.096 0.522,1.477 0.235,0.38 0.528,0.659 0.879,0.834 0.351,0.176 0.765,0.264 1.241,0.264 0.681,0 1.227,-0.103 1.637,-0.308 0.41,-0.205 0.71,-0.51 0.901,-0.917 C 7.665,9.704 7.767,9.2 7.782,8.601 h 3.844 c -0.095,1.105 -0.406,2.091 -0.934,2.96 -0.526,0.867 -1.27,1.549 -2.229,2.047 -0.96,0.498 -2.135,0.747 -3.526,0.747 -1.01,0 -1.929,-0.179 -2.757,-0.538 C 1.353,13.459 0.644,12.94 0.055,12.264 -0.535,11.586 -0.989,10.766 -1.307,9.803 -1.625,8.84 -1.785,7.758 -1.785,6.558 V 5.689 c 0,-1.201 0.152,-2.281 0.456,-3.24 C -1.025,1.49 -0.582,0.674 0,0"
       style="fill:#1d1d1b;fill-opacity:1;fill-rule:nonzero;stroke:none"
       transform="matrix(1.3333333,0,0,-1.3333333,205.83133,51.297333)"
       clip-path="url(#clipPath18)" />
    <path
       id="path19"
       d="M 0,0 C 0,0.791 0.064,1.488 0.192,2.092 0.32,2.696 0.513,3.203 0.769,3.613 1.025,4.023 1.344,4.333 1.725,4.541 2.105,4.75 2.552,4.854 3.064,4.854 3.555,4.854 3.993,4.75 4.377,4.541 4.762,4.333 5.085,4.023 5.349,3.613 5.613,3.203 5.812,2.696 5.948,2.092 6.083,1.488 6.151,0.791 6.151,0 V -0.67 C 6.151,-1.454 6.083,-2.147 5.948,-2.752 5.812,-3.355 5.614,-3.866 5.354,-4.284 5.095,-4.701 4.774,-5.017 4.394,-5.229 4.013,-5.441 3.577,-5.547 3.086,-5.547 2.574,-5.547 2.125,-5.441 1.741,-5.229 1.356,-5.017 1.034,-4.701 0.774,-4.284 0.515,-3.866 0.32,-3.355 0.192,-2.752 0.064,-2.147 0,-1.454 0,-0.67 Z m 0.258,-8.013 c 0.853,-0.362 1.796,-0.544 2.828,-0.544 1.026,0 1.963,0.182 2.812,0.544 0.85,0.363 1.585,0.886 2.208,1.571 0.623,0.684 1.104,1.511 1.444,2.482 0.341,0.971 0.511,2.066 0.511,3.29 v 0.648 C 10.061,1.2 9.889,2.299 9.545,3.272 9.201,4.247 8.717,5.076 8.095,5.761 7.473,6.445 6.735,6.969 5.882,7.331 5.029,7.693 4.09,7.875 3.064,7.875 2.032,7.875 1.089,7.693 0.236,7.331 -0.617,6.969 -1.353,6.445 -1.972,5.761 -2.59,5.076 -3.07,4.247 -3.41,3.272 -3.751,2.299 -3.921,1.2 -3.921,-0.022 V -0.67 c 0,-1.224 0.17,-2.319 0.511,-3.29 0.34,-0.971 0.824,-1.798 1.45,-2.482 0.626,-0.685 1.365,-1.208 2.218,-1.571"
       style="fill:#1d1d1b;fill-opacity:1;fill-rule:nonzero;stroke:none"
       transform="matrix(1.3333333,0,0,-1.3333333,228.36267,42.670933)"
       clip-path="url(#clipPath20)" />
    <path
       id="path21"
       d="m 0,0 c 0.143,0.245 0.344,0.437 0.604,0.577 0.26,0.139 0.566,0.209 0.917,0.209 0.491,0 0.855,-0.068 1.093,-0.204 0.238,-0.135 0.394,-0.304 0.467,-0.505 0.073,-0.201 0.11,-0.4 0.11,-0.598 0,-0.308 -0.071,-0.595 -0.214,-0.863 C 2.834,-1.651 2.647,-1.903 2.417,-2.142 2.186,-2.38 1.939,-2.615 1.675,-2.85 L -3.729,-7.199 V -9.363 H 7.398 v 2.834 H 1.697 l 1.241,1.197 c 0.63,0.483 1.187,0.926 1.67,1.329 0.483,0.402 0.892,0.796 1.225,1.181 0.333,0.384 0.585,0.789 0.757,1.214 0.172,0.423 0.259,0.9 0.259,1.427 0,0.593 -0.112,1.124 -0.335,1.593 C 6.29,1.88 5.957,2.277 5.514,2.604 5.071,2.929 4.516,3.178 3.85,3.351 3.184,3.522 2.407,3.608 1.521,3.608 c -1.098,0 -2.055,-0.188 -2.872,-0.565 -0.816,-0.377 -1.45,-0.9 -1.9,-1.571 -0.45,-0.67 -0.675,-1.448 -0.675,-2.334 h 3.712 c 0,0.33 0.071,0.617 0.214,0.862"
       style="fill:#1d1d1b;fill-opacity:1;fill-rule:nonzero;stroke:none"
       transform="matrix(1.3333333,0,0,-1.3333333,248.9896,41.302533)"
       clip-path="url(#clipPath22)" />
    <path
       id="path23"
       d="m 0,0 h 2.438 c 0.476,0 0.877,-0.088 1.203,-0.264 0.326,-0.175 0.573,-0.428 0.741,-0.757 0.169,-0.33 0.253,-0.725 0.253,-1.187 0,-0.454 -0.082,-0.844 -0.247,-1.169 C 4.223,-3.703 3.979,-3.954 3.657,-4.13 3.335,-4.306 2.929,-4.394 2.438,-4.394 H 0 Z m 6.87,-5.673 c 0.509,0.399 0.906,0.906 1.192,1.522 0.285,0.614 0.428,1.38 0.428,2.295 0,1.054 -0.247,1.94 -0.741,2.658 C 7.254,1.52 6.553,2.062 5.646,2.428 4.737,2.794 3.668,2.977 2.438,2.977 H -3.855 V -13.016 H 0 v 5.646 h 2.076 l 2.822,-5.646 h 4.13 v 0.165 l -3.341,6.467 c 0.429,0.208 0.833,0.436 1.183,0.711"
       style="fill:#1d1d1b;fill-opacity:1;fill-rule:nonzero;stroke:none"
       transform="matrix(1.3333333,0,0,-1.3333333,146.83533,64.5512)"
       clip-path="url(#clipPath24)" />
    <path
       id="path25"
       d="m 0,0 h -3.721 c 0.005,0.038 0.003,0.082 0.009,0.12 0.058,0.396 0.159,0.745 0.302,1.05 0.142,0.304 0.344,0.543 0.604,0.719 0.26,0.175 0.591,0.263 0.994,0.263 0.388,0 0.717,-0.073 0.988,-0.219 C -0.553,1.786 -0.346,1.574 -0.203,1.296 -0.06,1.018 0.007,0.681 0,0.285 Z M 2.181,3.438 C 1.715,3.943 1.15,4.331 0.483,4.602 -0.183,4.873 -0.937,5.009 -1.779,5.009 -2.731,5.009 -3.566,4.853 -4.283,4.542 -5.001,4.23 -5.598,3.796 -6.074,3.24 -6.55,2.684 -6.909,2.033 -7.15,1.29 -7.392,0.547 -7.513,-0.26 -7.513,-1.132 v -0.417 c 0,-0.776 0.138,-1.513 0.412,-2.208 0.275,-0.695 0.674,-1.31 1.198,-1.845 0.523,-0.535 1.166,-0.954 1.927,-1.257 0.762,-0.304 1.626,-0.456 2.592,-0.456 0.762,0 1.45,0.1 2.065,0.301 0.615,0.202 1.144,0.463 1.588,0.786 0.442,0.322 0.785,0.656 1.026,0.999 l -1.68,2 C 1.263,-3.669 0.842,-3.983 0.352,-4.174 -0.139,-4.364 -0.637,-4.46 -1.142,-4.46 c -0.418,0 -0.789,0.07 -1.115,0.209 -0.326,0.139 -0.604,0.335 -0.835,0.588 -0.23,0.252 -0.406,0.558 -0.527,0.917 -0.046,0.136 -0.074,0.282 -0.102,0.429 h 7.335 v 1.504 C 3.614,0.08 3.491,0.886 3.246,1.604 3,2.321 2.646,2.933 2.181,3.438"
       style="fill:#1d1d1b;fill-opacity:1;fill-rule:nonzero;stroke:none"
       transform="matrix(1.3333333,0,0,-1.3333333,170.54493,72.4444)"
       clip-path="url(#clipPath26)" />
    <path
       id="path27"
       d="m 0,0 c -0.224,-0.095 -0.504,-0.143 -0.84,-0.143 -0.367,0 -0.689,0.055 -0.967,0.165 -0.278,0.11 -0.5,0.282 -0.665,0.517 -0.164,0.233 -0.254,0.534 -0.269,0.9 h -3.448 c 0,-0.637 0.199,-1.265 0.598,-1.883 0.399,-0.619 0.99,-1.132 1.774,-1.538 0.783,-0.407 1.743,-0.61 2.878,-0.61 0.798,0 1.515,0.092 2.152,0.275 0.638,0.183 1.183,0.441 1.637,0.774 0.454,0.333 0.802,0.722 1.044,1.164 0.241,0.443 0.362,0.929 0.362,1.456 0,0.842 -0.218,1.512 -0.653,2.01 C 3.167,3.585 2.601,3.969 1.905,4.24 1.209,4.511 0.463,4.72 -0.335,4.866 -0.687,4.932 -0.987,5.007 -1.236,5.092 -1.485,5.176 -1.69,5.271 -1.851,5.377 c -0.161,0.106 -0.28,0.224 -0.357,0.352 -0.077,0.127 -0.115,0.272 -0.115,0.433 0,0.227 0.062,0.425 0.186,0.594 0.125,0.168 0.291,0.3 0.5,0.394 0.209,0.096 0.441,0.144 0.698,0.144 0.366,0 0.659,-0.058 0.878,-0.171 C 0.159,7.01 0.318,6.847 0.417,6.635 0.516,6.422 0.565,6.166 0.565,5.865 H 4.267 C 4.267,6.627 4.056,7.299 3.635,7.881 3.214,8.463 2.616,8.917 1.839,9.243 1.063,9.569 0.141,9.732 -0.928,9.732 -1.705,9.732 -2.396,9.631 -3.004,9.43 -3.612,9.229 -4.126,8.954 -4.547,8.606 -4.969,8.258 -5.287,7.859 -5.503,7.409 -5.719,6.959 -5.827,6.48 -5.827,5.976 c 0,-0.521 0.108,-0.982 0.324,-1.384 0.216,-0.404 0.514,-0.751 0.895,-1.044 0.381,-0.293 0.826,-0.542 1.335,-0.747 0.508,-0.205 1.052,-0.369 1.631,-0.494 0.607,-0.132 1.08,-0.262 1.416,-0.39 C 0.111,1.789 0.348,1.649 0.483,1.5 0.619,1.35 0.686,1.172 0.686,0.967 0.686,0.747 0.627,0.555 0.511,0.391 0.393,0.226 0.223,0.096 0,0"
       style="fill:#1d1d1b;fill-opacity:1;fill-rule:nonzero;stroke:none"
       transform="matrix(1.3333333,0,0,-1.3333333,184.7584,78.742533)"
       clip-path="url(#clipPath28)" />
    <path
       id="path29"
       d="m 0,0 c 0.143,0.304 0.344,0.543 0.604,0.719 0.26,0.176 0.591,0.263 0.994,0.263 0.388,0 0.717,-0.073 0.988,-0.219 C 2.857,0.616 3.064,0.404 3.207,0.126 3.35,-0.152 3.417,-0.489 3.41,-0.885 V -1.17 h -3.721 c 0.005,0.038 0.003,0.082 0.009,0.12 C -0.244,-0.654 -0.143,-0.305 0,0 m -0.566,-8.029 c 0.762,-0.304 1.626,-0.456 2.592,-0.456 0.762,0 1.45,0.1 2.065,0.301 0.616,0.202 1.144,0.463 1.588,0.787 0.443,0.321 0.785,0.655 1.027,0.999 L 5.025,-4.399 C 4.673,-4.839 4.252,-5.153 3.762,-5.344 3.271,-5.534 2.773,-5.63 2.268,-5.63 c -0.417,0 -0.789,0.07 -1.115,0.209 -0.326,0.139 -0.604,0.335 -0.835,0.588 -0.23,0.252 -0.406,0.558 -0.526,0.917 -0.046,0.136 -0.075,0.282 -0.104,0.429 h 7.336 v 1.504 c 0,0.893 -0.123,1.699 -0.368,2.417 C 6.411,1.151 6.056,1.763 5.591,2.268 5.125,2.773 4.56,3.161 3.894,3.432 3.227,3.703 2.473,3.839 1.631,3.839 0.679,3.839 -0.156,3.683 -0.873,3.372 -1.591,3.061 -2.188,2.626 -2.664,2.07 -3.14,1.514 -3.499,0.863 -3.74,0.12 -3.981,-0.623 -4.103,-1.43 -4.103,-2.302 v -0.417 c 0,-0.776 0.138,-1.512 0.413,-2.208 0.274,-0.695 0.673,-1.31 1.197,-1.844 0.523,-0.536 1.166,-0.955 1.927,-1.258"
       style="fill:#1d1d1b;fill-opacity:1;fill-rule:nonzero;stroke:none"
       transform="matrix(1.3333333,0,0,-1.3333333,197.7188,70.884533)"
       clip-path="url(#clipPath30)" />
    <path
       id="path31"
       d="m 0,0 c -0.29,-0.157 -0.639,-0.236 -1.049,-0.236 -0.227,0 -0.432,0.048 -0.615,0.143 -0.183,0.095 -0.328,0.229 -0.434,0.401 -0.106,0.171 -0.159,0.368 -0.159,0.588 0,0.226 0.031,0.442 0.093,0.647 0.062,0.205 0.165,0.391 0.308,0.555 0.143,0.165 0.333,0.295 0.571,0.39 0.238,0.095 0.529,0.143 0.873,0.143 H 0.752 V 0.745 C 0.723,0.688 0.704,0.635 0.665,0.577 0.511,0.35 0.289,0.157 0,0 M 4.476,0.347 V 5.212 C 4.476,6.156 4.26,6.942 3.828,7.568 3.396,8.194 2.808,8.664 2.065,8.979 1.322,9.294 0.478,9.452 -0.467,9.452 -1.258,9.452 -1.974,9.354 -2.614,9.16 -3.255,8.967 -3.804,8.693 -4.262,8.343 -4.719,7.991 -5.071,7.579 -5.316,7.106 -5.562,6.635 -5.684,6.124 -5.684,5.574 h 3.702 c 0,0.293 0.051,0.534 0.153,0.726 0.103,0.189 0.253,0.333 0.451,0.428 0.197,0.095 0.435,0.142 0.713,0.142 0.345,0 0.619,-0.067 0.824,-0.203 C 0.364,6.532 0.514,6.344 0.61,6.102 0.705,5.86 0.752,5.57 0.752,5.234 V 4.607 H -0.39 C -1.342,4.607 -2.169,4.52 -2.872,4.345 -3.575,4.169 -4.154,3.912 -4.607,3.575 -5.062,3.238 -5.4,2.828 -5.624,2.346 -5.847,1.862 -5.958,1.312 -5.958,0.697 c 0,-0.702 0.182,-1.323 0.548,-1.861 0.367,-0.538 0.855,-0.957 1.467,-1.258 0.611,-0.3 1.283,-0.45 2.015,-0.45 0.564,0 1.044,0.079 1.439,0.236 0.396,0.157 0.731,0.363 1.005,0.615 0.155,0.143 0.293,0.295 0.42,0.454 0.083,-0.413 0.188,-0.785 0.333,-1.085 h 3.712 v 0.186 C 4.82,-2.165 4.696,-1.815 4.608,-1.417 4.52,-1.018 4.476,-0.43 4.476,0.347"
       style="fill:#1d1d1b;fill-opacity:1;fill-rule:nonzero;stroke:none"
       transform="matrix(1.3333333,0,0,-1.3333333,216.31773,78.368933)"
       clip-path="url(#clipPath32)" />
    <path
       id="path33"
       d="M 0,0 C -0.52,0 -0.988,-0.131 -1.406,-0.391 -1.823,-0.65 -2.178,-1.021 -2.471,-1.5 -2.522,-1.584 -2.56,-1.686 -2.607,-1.775 l -0.128,1.555 h -3.46 v -11.884 h 3.702 v 7.514 c 0.089,0.197 0.197,0.377 0.346,0.52 0.201,0.194 0.458,0.341 0.769,0.439 0.311,0.1 0.683,0.149 1.115,0.149 0.168,0 0.377,-0.011 0.626,-0.034 0.248,-0.021 0.446,-0.04 0.593,-0.054 l 0.065,3.438 C 0.882,-0.088 0.723,-0.056 0.544,-0.033 0.364,-0.012 0.183,0 0,0"
       style="fill:#1d1d1b;fill-opacity:1;fill-rule:nonzero;stroke:none"
       transform="matrix(1.3333333,0,0,-1.3333333,233.32747,65.766)"
       clip-path="url(#clipPath34)" />
    <path
       id="path35"
       d="M 0,0 C 0.04,0.381 0.121,0.72 0.242,1.016 0.362,1.312 0.54,1.545 0.774,1.714 1.008,1.882 1.316,1.966 1.697,1.966 2.078,1.966 2.391,1.88 2.636,1.708 2.881,1.536 3.063,1.307 3.18,1.021 3.297,0.736 3.352,0.413 3.344,0.055 H 6.826 C 6.833,1.065 6.621,1.926 6.189,2.636 5.757,3.347 5.162,3.889 4.404,4.262 3.646,4.635 2.773,4.822 1.785,4.822 0.862,4.822 0.055,4.67 -0.637,4.366 -1.329,4.062 -1.908,3.638 -2.373,3.092 -2.838,2.546 -3.186,1.905 -3.416,1.17 -3.647,0.434 -3.762,-0.362 -3.762,-1.219 v -0.253 c 0,-0.856 0.115,-1.651 0.346,-2.383 0.23,-0.733 0.578,-1.372 1.043,-1.916 0.465,-0.546 1.045,-0.971 1.741,-1.275 0.696,-0.304 1.508,-0.456 2.439,-0.456 0.951,0 1.806,0.186 2.564,0.555 0.758,0.37 1.358,0.889 1.802,1.559 0.443,0.67 0.66,1.452 0.653,2.345 H 3.344 C 3.352,-3.38 3.291,-3.667 3.163,-3.904 3.035,-4.143 2.848,-4.326 2.603,-4.454 2.357,-4.582 2.063,-4.646 1.719,-4.646 1.331,-4.646 1.02,-4.563 0.785,-4.399 0.551,-4.234 0.372,-4.008 0.247,-3.718 0.123,-3.429 0.04,-3.092 0,-2.707 c -0.041,0.384 -0.061,0.796 -0.061,1.235 v 0.253 c 0,0.432 0.02,0.838 0.061,1.219"
       style="fill:#1d1d1b;fill-opacity:1;fill-rule:nonzero;stroke:none"
       transform="matrix(1.3333333,0,0,-1.3333333,240.51173,72.195733)"
       clip-path="url(#clipPath36)" />
    <path
       id="path37"
       d="M 0,0 C -0.194,0.6 -0.469,1.087 -0.824,1.461 -1.179,1.834 -1.6,2.104 -2.087,2.273 -2.574,2.441 -3.11,2.526 -3.696,2.526 -4.348,2.526 -4.941,2.383 -5.475,2.098 -5.958,1.839 -6.37,1.472 -6.728,1.022 v 6.271 h -3.701 V -9.578 h 3.701 v 8.514 c 0.139,0.21 0.316,0.387 0.55,0.514 0.271,0.147 0.622,0.22 1.054,0.22 0.359,0 0.663,-0.053 0.912,-0.159 0.249,-0.107 0.441,-0.293 0.576,-0.56 0.136,-0.267 0.204,-0.642 0.204,-1.126 v -7.403 h 3.723 v 7.381 C 0.291,-1.333 0.194,-0.601 0,0"
       style="fill:#1d1d1b;fill-opacity:1;fill-rule:nonzero;stroke:none"
       transform="matrix(1.3333333,0,0,-1.3333333,265.5104,69.134533)"
       clip-path="url(#clipPath38)" />
    <path
       id="path39"
       d="M 0,0 C -0.158,-0.326 -0.405,-0.58 -0.741,-0.764 -1.078,-0.946 -1.518,-1.038 -2.06,-1.038 h -2.525 v 4.613 h 2.525 c 0.542,0 0.982,-0.115 1.319,-0.346 C -0.405,2.999 -0.158,2.696 0,2.323 0.157,1.949 0.236,1.543 0.236,1.104 0.236,0.693 0.157,0.326 0,0 M 1.252,5.849 C 0.326,6.317 -0.778,6.552 -2.06,6.552 H -8.441 V -9.44 h 3.856 v 5.425 h 2.525 c 1.282,0 2.386,0.214 3.312,0.643 0.926,0.429 1.639,1.027 2.137,1.796 0.497,0.768 0.746,1.67 0.746,2.702 0,1.047 -0.249,1.978 -0.746,2.795 C 2.891,4.737 2.178,5.38 1.252,5.849"
       style="fill:#1d1d1b;fill-opacity:1;fill-rule:nonzero;stroke:none"
       transform="matrix(1.3333333,0,0,-1.3333333,152.9492,97.436533)"
       clip-path="url(#clipPath40)" />
    <path
       id="path41"
       d="m 0,0 c -0.29,-0.157 -0.639,-0.236 -1.049,-0.236 -0.227,0 -0.432,0.048 -0.615,0.143 -0.183,0.095 -0.328,0.229 -0.434,0.401 -0.106,0.171 -0.159,0.368 -0.159,0.588 0,0.226 0.031,0.442 0.093,0.647 0.062,0.205 0.165,0.391 0.308,0.555 0.143,0.165 0.333,0.295 0.571,0.39 0.238,0.095 0.529,0.143 0.873,0.143 H 0.752 V 0.744 C 0.723,0.688 0.704,0.635 0.665,0.577 0.511,0.35 0.289,0.157 0,0 M 4.476,0.347 V 5.212 C 4.476,6.156 4.26,6.942 3.828,7.568 3.396,8.194 2.808,8.664 2.065,8.979 1.322,9.294 0.478,9.452 -0.467,9.452 -1.258,9.452 -1.974,9.354 -2.614,9.16 -3.255,8.967 -3.804,8.693 -4.262,8.343 -4.719,7.991 -5.071,7.579 -5.316,7.106 -5.562,6.635 -5.684,6.124 -5.684,5.574 h 3.702 c 0,0.293 0.051,0.534 0.153,0.726 0.103,0.189 0.253,0.333 0.451,0.428 0.197,0.095 0.435,0.142 0.713,0.142 0.345,0 0.619,-0.067 0.824,-0.203 C 0.364,6.532 0.514,6.344 0.61,6.102 0.705,5.86 0.752,5.57 0.752,5.234 V 4.607 H -0.39 C -1.342,4.607 -2.169,4.52 -2.872,4.345 -3.575,4.169 -4.154,3.912 -4.607,3.575 -5.062,3.238 -5.4,2.828 -5.624,2.346 -5.847,1.862 -5.958,1.312 -5.958,0.697 c 0,-0.702 0.182,-1.323 0.548,-1.861 0.367,-0.538 0.855,-0.957 1.467,-1.258 0.611,-0.3 1.283,-0.45 2.015,-0.45 0.564,0 1.044,0.079 1.439,0.236 0.396,0.157 0.731,0.363 1.005,0.615 0.155,0.143 0.293,0.295 0.42,0.453 0.083,-0.412 0.188,-0.784 0.333,-1.084 h 3.712 v 0.186 C 4.82,-2.165 4.696,-1.815 4.608,-1.417 4.52,-1.018 4.476,-0.43 4.476,0.347"
       style="fill:#1d1d1b;fill-opacity:1;fill-rule:nonzero;stroke:none"
       transform="matrix(1.3333333,0,0,-1.3333333,168.0632,106.48733)"
       clip-path="url(#clipPath42)" />
    <path
       id="path43"
       d="m 0,0 c 0,-0.447 -0.029,-0.864 -0.088,-1.252 -0.058,-0.389 -0.158,-0.73 -0.296,-1.027 -0.139,-0.297 -0.326,-0.528 -0.561,-0.693 -0.234,-0.164 -0.527,-0.247 -0.878,-0.247 -0.528,0 -0.945,0.117 -1.253,0.352 -0.228,0.174 -0.388,0.417 -0.516,0.693 v 4.601 c 0.038,0.08 0.07,0.166 0.115,0.236 0.158,0.245 0.37,0.429 0.638,0.55 0.267,0.12 0.598,0.181 0.994,0.181 0.344,0 0.633,-0.077 0.867,-0.231 C -0.743,3.01 -0.555,2.79 -0.412,2.504 -0.269,2.219 -0.165,1.884 -0.099,1.499 -0.033,1.114 0,0.691 0,0.23 Z M 2.521,4.597 C 2.129,5.127 1.646,5.535 1.071,5.821 0.496,6.106 -0.168,6.25 -0.923,6.25 -1.633,6.25 -2.243,6.096 -2.751,5.788 -3.123,5.563 -3.436,5.252 -3.719,4.898 L -3.844,6.03 h -3.449 v -16.454 h 3.701 v 5.565 c 0.254,-0.288 0.528,-0.547 0.846,-0.743 0.513,-0.315 1.124,-0.472 1.834,-0.472 0.754,0 1.419,0.152 1.994,0.456 0.575,0.304 1.056,0.73 1.444,1.279 0.388,0.549 0.681,1.193 0.879,1.934 C 3.603,-1.666 3.702,-0.864 3.702,0 V 0.23 C 3.702,1.131 3.603,1.951 3.405,2.69 3.207,3.431 2.912,4.065 2.521,4.597"
       style="fill:#1d1d1b;fill-opacity:1;fill-rule:nonzero;stroke:none"
       transform="matrix(1.3333333,0,0,-1.3333333,186.53773,102.21787)"
       clip-path="url(#clipPath44)" />
    <path
       id="path45"
       d="m 0,0 h -3.721 c 0.005,0.038 0.003,0.082 0.009,0.12 0.058,0.396 0.159,0.745 0.302,1.05 0.142,0.304 0.344,0.543 0.604,0.719 0.26,0.175 0.591,0.263 0.994,0.263 0.388,0 0.717,-0.073 0.988,-0.219 C -0.553,1.786 -0.346,1.574 -0.203,1.296 -0.06,1.018 0.007,0.681 0,0.285 Z M 2.181,3.438 C 1.715,3.943 1.15,4.331 0.483,4.602 -0.183,4.873 -0.937,5.009 -1.779,5.009 -2.731,5.009 -3.566,4.853 -4.283,4.542 -5.001,4.23 -5.598,3.796 -6.074,3.24 -6.55,2.684 -6.909,2.033 -7.15,1.29 -7.392,0.547 -7.513,-0.26 -7.513,-1.132 v -0.417 c 0,-0.776 0.138,-1.513 0.412,-2.208 0.275,-0.695 0.674,-1.31 1.198,-1.845 0.523,-0.535 1.166,-0.954 1.927,-1.257 0.762,-0.304 1.626,-0.456 2.592,-0.456 0.762,0 1.45,0.1 2.065,0.301 0.615,0.202 1.144,0.463 1.588,0.786 0.442,0.322 0.785,0.656 1.026,0.999 l -1.68,2 C 1.263,-3.669 0.842,-3.983 0.352,-4.174 -0.139,-4.364 -0.637,-4.46 -1.142,-4.46 c -0.418,0 -0.789,0.07 -1.115,0.209 -0.326,0.139 -0.604,0.335 -0.835,0.588 -0.23,0.252 -0.406,0.558 -0.527,0.917 -0.046,0.135 -0.074,0.282 -0.102,0.429 h 7.335 v 1.504 C 3.614,0.08 3.491,0.886 3.246,1.604 3,2.321 2.646,2.933 2.181,3.438"
       style="fill:#1d1d1b;fill-opacity:1;fill-rule:nonzero;stroke:none"
       transform="matrix(1.3333333,0,0,-1.3333333,203.17387,100.56293)"
       clip-path="url(#clipPath46)" />
    <path
       id="path47"
       d="M 0,0 C -0.52,0 -0.988,-0.131 -1.406,-0.391 -1.823,-0.65 -2.178,-1.021 -2.471,-1.5 -2.522,-1.584 -2.56,-1.686 -2.607,-1.774 l -0.128,1.554 h -3.46 v -11.884 h 3.702 v 7.513 c 0.089,0.198 0.197,0.378 0.346,0.521 0.201,0.194 0.458,0.341 0.769,0.439 0.311,0.1 0.683,0.149 1.115,0.149 0.168,0 0.377,-0.011 0.626,-0.034 0.248,-0.021 0.446,-0.04 0.593,-0.054 l 0.065,3.438 C 0.882,-0.088 0.723,-0.056 0.544,-0.033 0.364,-0.012 0.183,0 0,0"
       style="fill:#1d1d1b;fill-opacity:1;fill-rule:nonzero;stroke:none"
       transform="matrix(1.3333333,0,0,-1.3333333,218.30213,93.884533)"
       clip-path="url(#clipPath48)" />
  </g>
</svg>
